<?xml version="1.0" standalone="no"?>
<!DOCTYPE svg PUBLIC "-//W3C//DTD SVG 20010904//EN"
 "http://www.w3.org/TR/2001/REC-SVG-20010904/DTD/svg10.dtd">
<svg version="1.0" xmlns="http://www.w3.org/2000/svg"
 width="840.000000pt" height="173.000000pt" viewBox="0 0 840.000000 173.000000"
 preserveAspectRatio="xMidYMid meet">

<g transform="translate(0.000000,173.000000) scale(0.100000,-0.100000)"
fill="rgba(205,217,229,0.7)" stroke="none">
<path d="M3830 967 c0 -463 3 -616 12 -625 8 -8 53 -12 135 -12 l123 0 0 103
1 102 68 74 68 74 81 -154 c114 -220 90 -199 237 -199 69 0 125 2 125 5 0 3
-61 127 -135 275 l-135 271 135 149 c74 82 135 152 135 155 0 3 -26 5 -57 5
l-58 -1 -230 -254 -230 -255 -3 450 -2 450 -135 0 -135 0 0 -613z"/>
<path d="M394 1495 c4 -14 47 -128 95 -253 96 -246 344 -886 354 -915 5 -14
15 -17 43 -15 l37 3 133 343 c73 189 135 346 137 348 3 3 27 -52 55 -123 27
-70 89 -228 137 -351 l87 -223 35 3 35 3 49 130 c26 72 94 254 150 405 56 151
132 358 170 460 38 102 69 191 69 198 0 9 -13 12 -47 10 -55 -4 -36 35 -178
-363 -53 -148 -110 -308 -127 -355 -36 -102 -43 -110 -56 -73 -107 303 -287
771 -299 781 -23 17 -263 17 -263 0 0 -6 27 -81 60 -166 34 -84 63 -166 66
-180 3 -17 -7 -60 -26 -112 -17 -47 -55 -149 -83 -227 -28 -78 -54 -139 -58
-135 -3 4 -72 187 -153 407 -81 220 -154 406 -163 413 -11 8 -57 12 -141 12
l-124 0 6 -25z"/>
<path d="M7270 1310 l0 -110 -65 0 -65 0 0 -40 0 -39 63 -3 62 -3 6 -270 c5
-250 7 -274 28 -328 30 -77 77 -137 131 -166 47 -26 136 -51 186 -51 55 0 132
29 170 65 31 30 35 37 24 50 -29 35 -50 38 -77 11 -39 -39 -89 -50 -133 -28
-59 29 -60 34 -60 395 l0 327 115 0 115 0 0 35 c0 43 -14 48 -138 43 l-91 -3
-3 110 -3 110 -132 3 -133 3 0 -111z"/>
<path d="M2395 1194 c-132 -17 -231 -60 -291 -127 -20 -22 -50 -69 -67 -105
-27 -59 -31 -79 -35 -180 -7 -173 23 -274 109 -367 57 -62 131 -92 264 -106
95 -10 122 -10 195 4 206 40 312 150 342 355 30 208 -46 389 -199 469 -82 43
-226 69 -318 57z m159 -102 c46 -27 65 -62 82 -152 20 -106 15 -357 -10 -436
-26 -82 -77 -118 -171 -118 -96 0 -146 37 -172 124 -23 80 -23 402 1 482 19
62 57 103 104 114 15 3 32 7 37 9 20 8 101 -7 129 -23z"/>
<path d="M3480 1190 c-55 -9 -113 -33 -147 -60 -31 -24 -43 -25 -43 -5 0 9
-11 27 -25 40 -23 23 -31 25 -130 25 l-105 0 0 -418 c0 -312 3 -421 12 -430 8
-8 53 -12 135 -12 l123 0 0 338 0 339 38 30 c107 86 225 101 344 43 55 -27 63
-26 79 11 11 28 10 33 -6 45 -58 42 -192 69 -275 54z"/>
<path d="M5512 1189 c-139 -21 -247 -91 -305 -196 -97 -180 -65 -458 69 -588
55 -54 120 -79 246 -95 175 -22 327 14 421 100 90 83 126 179 127 340 0 224
-91 363 -275 419 -75 23 -201 32 -283 20z m193 -93 c74 -31 95 -109 95 -346 0
-179 -11 -255 -44 -305 -52 -80 -239 -78 -291 2 -34 51 -47 158 -42 338 3 94
10 189 17 212 30 104 147 148 265 99z"/>
<path d="M6187 1183 c-4 -3 -7 -137 -7 -298 0 -230 3 -303 15 -350 36 -135
130 -203 312 -227 89 -11 133 -5 231 34 49 19 54 19 71 4 14 -13 40 -16 124
-16 l107 0 0 430 0 431 -132 -3 -133 -3 0 -373 0 -373 -54 -26 c-66 -33 -151
-36 -199 -8 -65 39 -67 52 -70 438 l-3 347 -128 0 c-70 0 -131 -3 -134 -7z"/>
</g>
</svg>
